<svg xmlns="http://www.w3.org/2000/svg" width="1440" height="900" viewBox="0 0 1440 900" role="img" aria-labelledby="title desc"><title id="title">TropaTT Gantt timeline</title><desc id="desc">Sanitized product screenshot illustration of the TropaTT Gantt timeline.</desc><rect width="1440" height="900" fill="#f5f8f7"/><rect width="1440" height="72" fill="#102b2b"/><rect y="72" width="236" height="828" fill="#163b3b"/><text x="34" y="45" fill="#fff" font-family="Arial" font-size="28" font-weight="700">TropaTT</text><text x="270" y="45" fill="#d7e7e3" font-family="Arial" font-size="18">Gantt / Project timeline</text><g fill="#c8ded9" font-family="Arial" font-size="16"><text x="34" y="130">⌂  Dashboard</text><text x="34" y="178">▣  CRM</text><text x="34" y="226">✓  Tasks</text><text x="34" y="274">▤  Projects</text><text x="34" y="322" fill="#fff">◈  Calendar</text><text x="34" y="370">☷  Team chat</text><text x="34" y="418">▥  Knowledge</text></g><text x="278" y="135" fill="#183333" font-family="Arial" font-size="34" font-weight="700">Project timeline</text><text x="278" y="170" fill="#657876" font-family="Arial" font-size="17">Dependencies and milestones at a glance</text><rect x="278" y="215" width="1060" height="560" rx="12" fill="#fff" stroke="#d8e5e2"/><g fill="#6c807c" font-family="Arial" font-size="14" font-weight="700"><text x="315" y="260">WORK ITEM</text><text x="715" y="260">WEEK 1</text><text x="875" y="260">WEEK 2</text><text x="1035" y="260">WEEK 3</text><text x="1195" y="260">WEEK 4</text></g><g stroke="#e5eeeb"><path d="M690 280V740M850 280V740M1010 280V740M1170 280V740M1330 280V740"/><path d="M310 315H1308M310 385H1308M310 455H1308M310 525H1308M310 595H1308M310 665H1308"/></g><g fill="#183333" font-family="Arial" font-size="16"><text x="315" y="355">Discovery</text><text x="315" y="425">Design</text><text x="315" y="495">Implementation</text><text x="315" y="565">Review</text><text x="315" y="635">Launch</text></g><g fill="#17856f"><rect x="710" y="333" width="150" height="28" rx="8"/><rect x="790" y="403" width="235" height="28" rx="8"/><rect x="930" y="473" width="310" height="28" rx="8"/><rect x="1090" y="543" width="150" height="28" rx="8"/><rect x="1250" y="613" width="72" height="28" rx="8"/></g><g stroke="#d37c18" stroke-width="3" fill="none"><path d="M860 347L790 417"/><path d="M1025 417L930 487"/><path d="M1240 487L1090 557"/><path d="M1240 557L1250 627"/></g></svg>